<svg xmlns="http://www.w3.org/2000/svg" viewBox="0 0 24 24" fill="#2563eb">
  <path fill-rule="evenodd" d="M4.125 3C3.089 3 2.25 3.84 2.25 4.875V18a3 3 0 003 3h15a.75.75 0 000-1.5h-15a1.5 1.5 0 01-1.5-1.5V6.375c0-.621.504-1.125 1.125-1.125H21a.75.75 0 000-1.5H4.125z" clip-rule="evenodd" />
  <path fill-rule="evenodd" d="M9.375 9.75a.75.75 0 01.75-.75H15a.75.75 0 010 1.5h-4.125V15a.75.75 0 01-1.5 0V9.75z" clip-rule="evenodd" />
  <path d="M11.25 5.25a1.5 1.5 0 00-1.5 1.5v1.5a.75.75 0 01-1.5 0v-1.5a3 3 0 013-3h6a3 3 0 013 3v1.5a.75.75 0 01-1.5 0v-1.5a1.5 1.5 0 00-1.5-1.5h-6z" />
</svg>
